<svg xmlns="http://www.w3.org/2000/svg" viewBox="0 0 100 100">
  <rect width="100" height="100" rx="20" fill="#1e293b"/>
  <!-- Green recycling bin -->
  <rect x="15" y="35" width="30" height="45" rx="3" fill="#22c55e"/>
  <rect x="18" y="28" width="24" height="8" rx="2" fill="#16a34a"/>
  <rect x="27" y="22" width="6" height="8" rx="1" fill="#16a34a"/>
  <!-- Recycling arrows -->
  <path d="M25 50 L30 45 L30 48 L35 48 L35 52 L30 52 L30 55 Z" fill="white" opacity="0.9"/>
  <path d="M35 60 L30 65 L30 62 L25 62 L25 58 L30 58 L30 55 Z" fill="white" opacity="0.9"/>
  <!-- Blue paper bin -->
  <rect x="55" y="35" width="30" height="45" rx="3" fill="#3b82f6"/>
  <rect x="58" y="28" width="24" height="8" rx="2" fill="#2563eb"/>
  <rect x="67" y="22" width="6" height="8" rx="1" fill="#2563eb"/>
  <!-- Paper icon -->
  <rect x="63" y="48" width="14" height="18" rx="1" fill="white" opacity="0.9"/>
  <rect x="66" y="52" width="8" height="2" fill="#3b82f6"/>
  <rect x="66" y="56" width="8" height="2" fill="#3b82f6"/>
  <rect x="66" y="60" width="5" height="2" fill="#3b82f6"/>
</svg>
